<?xml version="1.0" encoding="utf-8"?>
<!-- Generator: Adobe Illustrator 22.1.0, SVG Export Plug-In . SVG Version: 6.00 Build 0)  -->
<svg version="1.1" id="Layer_1" xmlns="http://www.w3.org/2000/svg" xmlns:xlink="http://www.w3.org/1999/xlink" x="0px" y="0px"
	 viewBox="0 0 199.8 50.8" style="enable-background:new 0 0 199.8 50.8;" xml:space="preserve">
<style type="text/css">
	.st0{fill:#233D90;}
	.st1{enable-background:new    ;}
	.st2{fill:#231F20;}
	.st3{fill:#666766;}
</style>
<title>ENIGMACAMP-LOGO-SM</title>
<g id="Design-02">
	<path class="st0" d="M33.7,36.9l1.5-1.5c1.5-1.5,3.5-2.3,5.5-2.2c4,0,7.3-3.4,7.3-7.7c0-4.2-3.3-7.7-7.3-7.7l0,0
		c-2,0.1-4-0.8-5.5-2.2L33.7,14c-1.4-1.5-2.2-3.6-2.2-5.8c0-4.2-3.2-7.7-7.2-7.7S17,3.9,16.9,8.1s3.2,7.7,7.2,7.7h0.1
		c2-0.1,4,0.8,5.5,2.2l1.4,1.5c1.5,1.6,2.2,3.7,2.2,5.9v0.1c0,2.2-0.8,4.3-2.2,5.9l-1.4,1.4c-1.5,1.5-3.5,2.4-5.6,2.3H24
		c-2.1,0-4.1-0.8-5.6-2.3L17,31.3c-1.4-1.5-2.2-3.6-2.2-5.8c0-4.2-3.2-7.7-7.3-7.7s-7.3,3.4-7.4,7.6s3.2,7.7,7.3,7.7h0.1
		c2-0.1,4,0.8,5.5,2.2l1.5,1.6c1.4,1.5,2.2,3.6,2.2,5.8c-0.1,4.2,3.1,7.7,7.2,7.8c4,0.1,7.4-3.3,7.4-7.5c0-0.1,0-0.2,0-0.3
		C31.5,40.5,32.3,38.4,33.7,36.9z"/>
	<g id="Enigmacamp">
		<g class="st1">
			<path class="st2" d="M63.9,33.2H52.2c0-5.4,0-10.9,0-16.3h11.6v3h-8.7v3.8h8.4v2.9h-8.4v3.7h8.7V33.2z"/>
		</g>
		<g class="st1">
			<path class="st2" d="M76.8,16.8h2.9v16.3h-1.8v0l-8.2-11v11h-2.9V16.8h2.4L76.8,27V16.8z"/>
			<path class="st2" d="M82.5,33.2V16.8h2.9v16.3H82.5z"/>
			<path class="st2" d="M99.7,20.8c-1-1-2.6-1.6-4-1.6c-3.3,0-5.4,2.7-5.4,6c0,2.7,1.5,5.5,5.4,5.5c1.2,0,2.3-0.3,3.5-1.3v-2.9h-4
				v-2.8h6.7v6.9c-1.5,1.8-3.5,2.9-6.2,2.9c-5.8,0-8.2-4-8.2-8.3c0-4.6,2.7-8.8,8.2-8.8c2.1,0,4.2,0.8,5.8,2.5L99.7,20.8z"/>
			<path class="st2" d="M117.9,21.3l-5.1,7.1h-0.6l-5-7.1v11.9h-2.9V16.9h3.4l4.9,7l4.9-7h3.4v16.3h-2.9V21.3z"/>
			<path class="st2" d="M134.7,30.1h-8.1l-1.3,3.1H122l7-16.3h3.2l7,16.3H136L134.7,30.1z M130.6,20.3l-2.9,6.9h5.8L130.6,20.3z"/>
		</g>
		<g class="st1">
			<path class="st0" d="M151.6,30.9c-1.6,1.6-3.6,2.4-5.7,2.4c-5.2,0-8-3.8-8-8.3c0-4.4,2.7-8.4,8-8.4c2,0,4.1,0.8,5.7,2.4l-0.8,0.7
				c-1.3-1.4-3.1-2.1-4.8-2.1c-4.5,0-6.9,3.4-6.8,7.3c0,3.8,2.4,7.1,6.8,7.1c1.8,0,3.5-0.7,4.9-2.1L151.6,30.9z"/>
			<path class="st0" d="M166.1,33.2l-1.7-4h-9.3l-1.7,4h-1.3l7-16.3h1.3l7,16.3H166.1z M164,28l-4.2-9.9l-4.2,9.9H164z"/>
			<path class="st0" d="M182.8,18.7l-6,9.6h-0.4l-6-9.6v14.5h-1.2V16.8c0.6,0,0.8,0,1.4,0l6,9.5l5.9-9.5h1.5v16.3h-1.2V18.7z"/>
			<path class="st0" d="M188.6,27.5v5.6h-1.2V16.8c2.3,0,4.6,0,6.8,0c6.8,0,6.8,10.7,0,10.7H188.6z M188.6,18v8.4h5.6
				c5.2,0,5.2-8.4,0-8.4H188.6z"/>
		</g>
	</g>
	<g>
		<g class="st1">
			<path class="st3" d="M141.2,45.7v-6.4h0.5v6.4H141.2z"/>
		</g>
		<g class="st1">
			<path class="st3" d="M145,39.8h-2.2v-0.4h4.9v0.4h-2.2v5.9H145V39.8z"/>
		</g>
		<g class="st1">
			<path class="st3" d="M155.4,41.1c0,0.7-0.4,1.2-1,1.4c0.8,0.2,1.2,0.9,1.2,1.6c0,1.3-1.2,1.7-2.2,1.7c-0.9,0-1.6,0-2.5,0v-6.4
				c0.9,0,1.6,0,2.5,0C154.4,39.4,155.4,39.9,155.4,41.1z M151.4,42.3h2.1c0.7,0,1.5-0.2,1.5-1.1c0-0.9-0.8-1.3-1.6-1.3h-2V42.3z
				 M151.4,45.3h2c0.8,0,1.7-0.2,1.7-1.2c0-1-0.9-1.3-1.7-1.3c-0.7,0-1.4,0-2.1,0V45.3z"/>
		</g>
		<g class="st1">
			<path class="st3" d="M162.7,42.6c0,1.7-1,3.3-3.1,3.3c-2,0-3.1-1.6-3.1-3.3c0-1.7,1-3.3,3.1-3.3
				C161.7,39.3,162.7,40.8,162.7,42.6z M157,42.6c0,1.4,0.9,2.8,2.6,2.8c1.7,0,2.6-1.4,2.6-2.8c0-1.5-0.9-2.8-2.6-2.8
				C157.9,39.7,157,41.1,157,42.6z"/>
		</g>
		<g class="st1">
			<path class="st3" d="M169.7,42.6c0,1.7-1,3.3-3.1,3.3c-2,0-3.1-1.6-3.1-3.3c0-1.7,1-3.3,3.1-3.3
				C168.6,39.3,169.7,40.8,169.7,42.6z M164,42.6c0,1.4,0.9,2.8,2.6,2.8c1.7,0,2.6-1.4,2.6-2.8c0-1.5-0.9-2.8-2.6-2.8
				C164.9,39.7,164,41.1,164,42.6z"/>
		</g>
		<g class="st1">
			<path class="st3" d="M172.1,39.8H170v-0.4h4.9v0.4h-2.2v5.9h-0.5V39.8z"/>
			<path class="st3" d="M180.7,44.9c-0.6,0.6-1.4,1-2.2,1c-2,0-3.1-1.5-3.1-3.2c0-1.7,1-3.3,3.1-3.3c0.8,0,1.6,0.3,2.2,1l-0.3,0.3
				c-0.5-0.5-1.2-0.8-1.9-0.8c-1.8,0-2.7,1.3-2.7,2.8c0,1.5,0.9,2.8,2.7,2.8c0.7,0,1.4-0.3,1.9-0.8L180.7,44.9z"/>
			<path class="st3" d="M186.4,45.7l-0.7-1.6h-3.6l-0.7,1.6h-0.5l2.7-6.4h0.5l2.7,6.4H186.4z M185.5,43.7l-1.6-3.9l-1.6,3.9H185.5z"
				/>
			<path class="st3" d="M192.8,40.1l-2.3,3.7h-0.2l-2.3-3.7v5.7h-0.5v-6.4c0.2,0,0.3,0,0.6,0l2.3,3.7l2.3-3.7h0.6v6.4h-0.5V40.1z"/>
			<path class="st3" d="M195.1,43.5v2.2h-0.5v-6.4c0.9,0,1.8,0,2.7,0c2.6,0,2.6,4.2,0,4.2H195.1z M195.1,39.8v3.3h2.2
				c2,0,2-3.3,0-3.3H195.1z"/>
		</g>
	</g>
</g>
</svg>
